<?xml version="1.0" encoding="UTF-8" standalone="no"?>
<!-- Created with Inkscape (http://www.inkscape.org/) -->

<svg
   xmlns:dc="http://purl.org/dc/elements/1.1/"
   xmlns:cc="http://creativecommons.org/ns#"
   xmlns:rdf="http://www.w3.org/1999/02/22-rdf-syntax-ns#"
   xmlns:svg="http://www.w3.org/2000/svg"
   xmlns="http://www.w3.org/2000/svg"
   xmlns:sodipodi="http://sodipodi.sourceforge.net/DTD/sodipodi-0.dtd"
   xmlns:inkscape="http://www.inkscape.org/namespaces/inkscape"
   width="25.534489"
   height="25.403"
   viewBox="0 0 6.756 6.7212099"
   version="1.1"
   id="svg96"
   inkscape:version="0.92.5 (2060ec1f9f, 2020-04-08)"
   sodipodi:docname="connection.svg">
  <defs
     id="defs90" />
  <sodipodi:namedview
     id="base"
     pagecolor="#ffffff"
     bordercolor="#666666"
     borderopacity="1.0"
     inkscape:pageopacity="0.0"
     inkscape:pageshadow="2"
     inkscape:zoom="22.4"
     inkscape:cx="23.012789"
     inkscape:cy="5.6505777"
     inkscape:document-units="mm"
     inkscape:current-layer="layer1"
     showgrid="false"
     units="px"
     width="6.756in"
     inkscape:window-width="1366"
     inkscape:window-height="715"
     inkscape:window-x="0"
     inkscape:window-y="0"
     inkscape:window-maximized="1" />
  <metadata
     id="metadata93">
    <rdf:RDF>
      <cc:Work
         rdf:about="">
        <dc:format>image/svg+xml</dc:format>
        <dc:type
           rdf:resource="http://purl.org/dc/dcmitype/StillImage" />
        <dc:title></dc:title>
      </cc:Work>
    </rdf:RDF>
  </metadata>
  <g
     inkscape:label="Layer 1"
     inkscape:groupmode="layer"
     id="layer1"
     transform="translate(0,-290.27879)">
    <path
       inkscape:connector-curvature="0"
       id="path97"
       d="m 0.83948818,296.99344 c -0.1327604,-0.0141 -0.3044226,-0.0782 -0.4237074,-0.15846 -0.029349,-0.0198 -0.086316,-0.068 -0.1265893,-0.10713 -0.2953189,-0.28728 -0.3721829,-0.71612 -0.1947845,-1.08673 0.047543,-0.0993 0.092414,-0.16488 0.1665361,-0.24327 0.1996069,-0.21111 0.4817987,-0.31828 0.77299342,-0.29359 0.3998376,0.0339 0.7336643,0.31666 0.836099,0.70822 0.026555,0.10143 0.035362,0.27035 0.019707,0.37789 -0.061758,0.42419 -0.4075926,0.75463 -0.8411599,0.80369 -0.084527,0.008 -0.11327432,0.008 -0.20909262,-4.8e-4 z m 5.35033102,-0.90253 c -0.04614,-0.007 -0.08056,-0.0253 -0.105479,-0.0518 -0.03569,-0.0382 -0.04532,-0.0785 -0.05342,-0.22379 -0.02786,-0.49966 -0.104075,-0.91248 -0.25197,-1.36472 -0.352226,-1.07702 -1.07504,-2.02118 -2.0275545,-2.64846 -0.183218,-0.1207 -0.3347808,-0.20677 -0.5522786,-0.31379 -0.6167332,-0.30344 -1.2841125,-0.47947 -1.9365936,-0.51074 -0.2162481,-0.0105 -0.27220432,-0.0247 -0.32106562,-0.0829 -0.033741,-0.0401 -0.041046,-0.098 -0.037882,-0.30013 0.00308,-0.19712 0.00537,-0.20777 0.054296,-0.25426 0.057819,-0.055 0.15315472,-0.0701 0.35701302,-0.0573 1.3834428,0.0881 2.675779,0.66442 3.669579,1.63621 0.868561,0.84931 1.432709,1.91112 1.653886,3.11282 0.045,0.24453 0.08052,0.58338 0.08244,0.78659 0.0011,0.11455 -4.86e-4,0.12915 -0.01796,0.16705 -0.02382,0.0515 -0.03885,0.0685 -0.08127,0.091 -0.03072,0.0161 -0.04824,0.0179 -0.21338,0.0195 -0.09895,9.7e-4 -0.197219,-9.6e-4 -0.218377,-0.005 z m -3.2218937,-0.0172 c -0.039324,-0.0208 -0.071676,-0.0597 -0.082024,-0.0986 -0.00454,-0.0172 -0.013967,-0.0806 -0.020979,-0.14127 -0.082003,-0.70956 -0.5414776,-1.31298 -1.1993856,-1.57508 -0.1597078,-0.0635 -0.351541,-0.11003 -0.522865,-0.12651 -0.051751,-0.005 -0.1064267,-0.0129 -0.121502,-0.0177 -0.037833,-0.0112 -0.074538,-0.0447 -0.095996,-0.0856 -0.016515,-0.0315 -0.018361,-0.05 -0.021448,-0.21504 -0.00401,-0.21543 0.00284,-0.26182 0.045734,-0.30931 0.044754,-0.0496 0.08884,-0.0625 0.2079013,-0.0614 0.202461,0.002 0.5026833,0.0695 0.7599428,0.17182 0.5274457,0.20949 0.979818,0.59353 1.2751069,1.08252 0.2060754,0.34122 0.3277225,0.71102 0.3664606,1.11401 0.017147,0.17836 0.00314,0.22747 -0.075245,0.26347 -0.029892,0.0137 -0.057644,0.0155 -0.2594037,0.0151 -0.2063474,-1.7e-4 -0.2285647,-9.6e-4 -0.256299,-0.0161 z m 1.5834137,-4.9e-4 c -0.06414,-0.039 -0.08041,-0.0829 -0.09283,-0.25034 -0.01696,-0.22851 -0.04516,-0.41269 -0.09286,-0.60668 -0.159438,-0.6482 -0.4860199,-1.21785 -0.9666567,-1.68613 -0.5640931,-0.54959 -1.2969645,-0.89452 -2.0700823,-0.97431 -0.2669672,-0.0277 -0.2689049,-0.0278 -0.3261989,-0.0569 -0.043301,-0.0219 -0.058492,-0.0351 -0.07531,-0.065 -0.021009,-0.0376 -0.021066,-0.0382 -0.021066,-0.25519 0,-0.23991 0.00132,-0.24691 0.054471,-0.29166 0.041789,-0.0352 0.081759,-0.0414 0.2300368,-0.0362 0.2392021,0.007 0.4950378,0.0465 0.7698433,0.1143 0.6237296,0.15394 1.1916232,0.44297 1.6948785,0.86257 0.1271642,0.10602 0.3864732,0.36319 0.4950872,0.49101 0.477573,0.56196 0.801752,1.23872 0.93495,1.95184 0.04047,0.21666 0.0674,0.46096 0.06742,0.61143 7e-6,0.08 -0.0022,0.0929 -0.023,0.13335 -0.03828,0.0745 -0.04104,0.0754 -0.315756,0.0754 -0.222488,-2e-5 -0.235881,-9.6e-4 -0.262909,-0.0173 z"
       style="fill:#000000;stroke-width:0.00836786" />
  </g>
</svg>
