<?xml version="1.0" encoding="UTF-8" standalone="no"?>
<!-- Created with Inkscape (http://www.inkscape.org/) -->

<svg
   xmlns:dc="http://purl.org/dc/elements/1.1/"
   xmlns:cc="http://creativecommons.org/ns#"
   xmlns:rdf="http://www.w3.org/1999/02/22-rdf-syntax-ns#"
   xmlns:svg="http://www.w3.org/2000/svg"
   xmlns="http://www.w3.org/2000/svg"
   xmlns:sodipodi="http://sodipodi.sourceforge.net/DTD/sodipodi-0.dtd"
   xmlns:inkscape="http://www.inkscape.org/namespaces/inkscape"
   width="2.54703"
   height="2.8583801"
   viewBox="0 0 0.67390162 0.75627977"
   version="1.1"
   id="svg8"
   inkscape:version="0.92.5 (2060ec1f9f, 2020-04-08)"
   sodipodi:docname="hex.svg"
   inkscape:export-filename="/home/manu/project-hack/static/images/hex.png"
   inkscape:export-xdpi="96"
   inkscape:export-ydpi="96">
  <defs
     id="defs2" />
  <sodipodi:namedview
     id="base"
     pagecolor="#ffffff"
     bordercolor="#666666"
     borderopacity="1.0"
     inkscape:pageopacity="0.0"
     inkscape:pageshadow="2"
     inkscape:zoom="44.8"
     inkscape:cx="4.7384796"
     inkscape:cy="5.2234179"
     inkscape:document-units="mm"
     inkscape:current-layer="layer1"
     showgrid="false"
     units="px"
     inkscape:window-width="1366"
     inkscape:window-height="715"
     inkscape:window-x="0"
     inkscape:window-y="0"
     inkscape:window-maximized="1" />
  <metadata
     id="metadata5">
    <rdf:RDF>
      <cc:Work
         rdf:about="">
        <dc:format>image/svg+xml</dc:format>
        <dc:type
           rdf:resource="http://purl.org/dc/dcmitype/StillImage" />
        <dc:title></dc:title>
      </cc:Work>
    </rdf:RDF>
  </metadata>
  <g
     inkscape:label="Layer 1"
     inkscape:groupmode="layer"
     id="layer1"
     transform="translate(0,-296.24369)">
    <path
       inkscape:connector-curvature="0"
       id="path86"
       d="m 0.32029996,296.99806 c -0.009736,-0.003 -0.19478748,-0.10805 -0.27064033,-0.15352 -0.05299413,-0.0318 -0.04961645868,-0.0166 -0.04961645868,-0.22304 0,-0.16835 3.4551707e-4,-0.17627 0.0082693987,-0.18945 0.00930469,-0.0155 0.01987961,-0.0221 0.19197058,-0.12088 0.10562712,-0.0606 0.11949189,-0.0675 0.13673841,-0.0675 0.0172465,0 0.0311115,0.007 0.13673843,0.0675 0.17209114,0.0987 0.18266592,0.10541 0.19197072,0.12088 0.007924,0.0132 0.008269,0.0211 0.008269,0.18945 0,0.16833 -3.4257e-4,0.17628 -0.008269,0.18954 -0.009033,0.0151 -0.0244215,0.0247 -0.20053318,0.12565 -0.10396533,0.0596 -0.1238841,0.068 -0.14489757,0.0614 z"
       style="fill:#000000;stroke-width:0.00413436" />
  </g>
</svg>
